<svg id="mermaidChart25" width="100%" xmlns="http://www.w3.org/2000/svg" height="100%" style="max-width:1450px;" viewBox="-50 -10 1450 1305"><style type="text/css" title="mermaid-svg-internal-css">/*  */
*, ::before, ::after { box-sizing: inherit;}
.actor { stroke: rgb(204, 204, 255); fill: rgb(226, 236, 255);}
text.actor { fill: black; stroke: none; font-size: 12px;}
.actor-line { stroke: grey;}
.messageLine0 { stroke-width: 1.5; stroke: black;}
#arrowhead { fill: black;}
.messageText { fill: black; stroke: none; font-size: 12px;}
.note { stroke: rgb(204, 204, 255); fill: rgb(255, 245, 173);}
.noteText { fill: black; stroke: none; font-size: 12px;}
.actor { stroke: rgb(204, 204, 255); fill: rgb(236, 236, 255);}
text.actor { fill: black; stroke: none;}
.actor-line { stroke: grey;}
.messageLine0 { stroke-width: 1.5; stroke: rgb(51, 51, 51);}
#arrowhead { fill: rgb(51, 51, 51);}
#crosshead path { fill: rgb(51, 51, 51) !important; stroke: rgb(51, 51, 51) !important;}
.messageText { fill: rgb(51, 51, 51); stroke: none;}
.note { stroke: rgb(170, 170, 51); fill: rgb(255, 245, 173);}
.noteText { fill: black; stroke: none; font-family: "trebuchet ms", verdana, arial; font-size: 14px;}
text { font-family: "trebuchet ms", verdana, arial; font-size: 14px;}
/*  */
</style><g></g><g><line id="actor146" x1="75" y1="5" x2="75" y2="1294" class="actor-line" stroke-width="0.5px" stroke="#999"></line><rect x="0" y="0" fill="#eaeaea" stroke="#666" width="150" height="65" rx="3" ry="3" class="actor"></rect><text x="75" y="37.5" class="actor" style="text-anchor: middle;">Alice</text></g><g><line id="actor147" x1="275" y1="5" x2="275" y2="1294" class="actor-line" stroke-width="0.5px" stroke="#999"></line><rect x="200" y="0" fill="#eaeaea" stroke="#666" width="150" height="65" rx="3" ry="3" class="actor"></rect><text x="275" y="37.5" class="actor" style="text-anchor: middle;">Bob</text></g><g><line id="actor148" x1="475" y1="5" x2="475" y2="1294" class="actor-line" stroke-width="0.5px" stroke="#999"></line><rect x="400" y="0" fill="#eaeaea" stroke="#666" width="150" height="65" rx="3" ry="3" class="actor"></rect><text x="475" y="37.5" class="actor" style="text-anchor: middle;">Caroll</text></g><g><line id="actor149" x1="675" y1="5" x2="675" y2="1294" class="actor-line" stroke-width="0.5px" stroke="#999"></line><rect x="600" y="0" fill="#eaeaea" stroke="#666" width="150" height="65" rx="3" ry="3" class="actor"></rect><text x="675" y="37.5" class="actor" style="text-anchor: middle;">Alice/Verifier</text></g><g><line id="actor150" x1="875" y1="5" x2="875" y2="1294" class="actor-line" stroke-width="0.5px" stroke="#999"></line><rect x="800" y="0" fill="#eaeaea" stroke="#666" width="150" height="65" rx="3" ry="3" class="actor"></rect><text x="875" y="37.5" class="actor" style="text-anchor: middle;">Caroll/Prover1</text></g><g><line id="actor151" x1="1075" y1="5" x2="1075" y2="1294" class="actor-line" stroke-width="0.5px" stroke="#999"></line><rect x="1000" y="0" fill="#eaeaea" stroke="#666" width="150" height="65" rx="3" ry="3" class="actor"></rect><text x="1075" y="37.5" class="actor" style="text-anchor: middle;">Bob/Verifier</text></g><g><line id="actor152" x1="1275" y1="5" x2="1275" y2="1294" class="actor-line" stroke-width="0.5px" stroke="#999"></line><rect x="1200" y="0" fill="#eaeaea" stroke="#666" width="150" height="65" rx="3" ry="3" class="actor"></rect><text x="1275" y="37.5" class="actor" style="text-anchor: middle;">Caroll/Prover2</text></g><defs><marker id="arrowhead" refX="5" refY="2" markerWidth="6" markerHeight="4" orient="auto"><path d="M 0,0 V 4 L6,2 Z"></path></marker></defs><defs><marker id="crosshead" markerWidth="15" markerHeight="8" orient="auto" refX="16" refY="4"><path fill="black" stroke="#000000" stroke-width="1px" d="M 9,2 V 6 L16,4 Z" style="stroke-dasharray: 0, 0;"></path><path fill="none" stroke="#000000" stroke-width="1px" d="M 0,1 L 6,7 M 6,1 L 0,7" style="stroke-dasharray: 0, 0;"></path></marker></defs><g><text x="275" y="93" class="messageText" style="text-anchor: middle;">Register</text><line x1="75" y1="100" x2="475" y2="100" class="messageLine0" stroke-width="2" stroke="black" marker-end="url(#arrowhead)" style="fill: none;"></line></g><g><text x="275" y="128" class="messageText" style="text-anchor: middle;">Invite</text><line x1="475" y1="135" x2="75" y2="135" class="messageLine0" stroke-width="2" stroke="black" marker-end="url(#arrowhead)" style="fill: none;"></line></g><g><text x="375" y="163" class="messageText" style="text-anchor: middle;">Register</text><line x1="275" y1="170" x2="475" y2="170" class="messageLine0" stroke-width="2" stroke="black" marker-end="url(#arrowhead)" style="fill: none;"></line></g><g><text x="375" y="198" class="messageText" style="text-anchor: middle;">Invite</text><line x1="475" y1="205" x2="275" y2="205" class="messageLine0" stroke-width="2" stroke="black" marker-end="url(#arrowhead)" style="fill: none;"></line></g><g><text x="275" y="233" class="messageText" style="text-anchor: middle;">EncryptedNumber</text><line x1="75" y1="240" x2="475" y2="240" class="messageLine0" stroke-width="2" stroke="black" marker-end="url(#arrowhead)" style="fill: none;"></line></g><g><text x="375" y="268" class="messageText" style="text-anchor: middle;">EncryptedNumber</text><line x1="275" y1="275" x2="475" y2="275" class="messageLine0" stroke-width="2" stroke="black" marker-end="url(#arrowhead)" style="fill: none;"></line></g><g><text x="475" y="303" class="messageText" style="text-anchor: middle;">MultiplyNumbers</text><path d="M 475,310 C 535,300 535,340 475,330" class="messageLine0" stroke-width="2" stroke="black" marker-end="url(#arrowhead)" style="fill: none;"></path></g><g><rect x="500" y="350" fill="#EDF2AE" stroke="#666" width="150" height="57" rx="0" ry="0" class="note"></rect><text x="516" y="378" fill="black" class="noteText"><tspan x="516">Waiting for second</tspan><tspan dy="21" x="516">number...</tspan></text></g><g><text x="275" y="435" class="messageText" style="text-anchor: middle;">EncryptedNumbers</text><line x1="475" y1="442" x2="75" y2="442" class="messageLine0" stroke-width="2" stroke="black" marker-end="url(#arrowhead)" style="fill: none;"></line></g><g><text x="375" y="470" class="messageText" style="text-anchor: middle;">EncryptedNumbers</text><line x1="475" y1="477" x2="275" y2="477" class="messageLine0" stroke-width="2" stroke="black" marker-end="url(#arrowhead)" style="fill: none;"></line></g><g><text x="475" y="505" class="messageText" style="text-anchor: middle;">MultiplyNumbers</text><path d="M 475,512 C 535,502 535,542 475,532" class="messageLine0" stroke-width="2" stroke="black" marker-end="url(#arrowhead)" style="fill: none;"></path></g><g><rect x="500" y="552" fill="#EDF2AE" stroke="#666" width="150" height="99" rx="0" ry="0" class="note"></rect><text x="516" y="580" fill="black" class="noteText"><tspan x="516">Received second</tspan><tspan dy="21" x="516">number. Multiply</tspan><tspan dy="21" x="516">them and send</tspan><tspan dy="21" x="516">results to clients</tspan></text></g><g><text x="375" y="679" class="messageText" style="text-anchor: middle;">EncryptedResult</text><line x1="475" y1="686" x2="275" y2="686" class="messageLine0" stroke-width="2" stroke="black" marker-end="url(#arrowhead)" style="fill: none;"></line></g><g><rect x="300" y="696" fill="#EDF2AE" stroke="#666" width="150" height="36" rx="0" ry="0" class="note"></rect><text x="316" y="724" fill="black" class="noteText"><tspan x="316">Spawn Verifier</tspan></text></g><g><text x="275" y="760" class="messageText" style="text-anchor: middle;">EncryptedResult</text><line x1="475" y1="767" x2="75" y2="767" class="messageLine0" stroke-width="2" stroke="black" marker-end="url(#arrowhead)" style="fill: none;"></line></g><g><rect x="100" y="777" fill="#EDF2AE" stroke="#666" width="150" height="36" rx="0" ry="0" class="note"></rect><text x="116" y="805" fill="black" class="noteText"><tspan x="116">Spawn Verifier</tspan></text></g><g><text x="575" y="841" class="messageText" style="text-anchor: middle;">Prove</text><line x1="675" y1="848" x2="475" y2="848" class="messageLine0" stroke-width="2" stroke="black" marker-end="url(#arrowhead)" style="fill: none;"></line></g><g><text x="775" y="876" class="messageText" style="text-anchor: middle;">Prove</text><line x1="1075" y1="883" x2="475" y2="883" class="messageLine0" stroke-width="2" stroke="black" marker-end="url(#arrowhead)" style="fill: none;"></line></g><g><rect x="500" y="893" fill="#EDF2AE" stroke="#666" width="150" height="36" rx="0" ry="0" class="note"></rect><text x="516" y="921" fill="black" class="noteText"><tspan x="516">Spawn Provers</tspan></text></g><g><text x="1175" y="957" class="messageText" style="text-anchor: middle;">Message1</text><line x1="1275" y1="964" x2="1075" y2="964" class="messageLine0" stroke-width="2" stroke="black" marker-end="url(#arrowhead)" style="fill: none;"></line></g><g><text x="775" y="992" class="messageText" style="text-anchor: middle;">Message1</text><line x1="875" y1="999" x2="675" y2="999" class="messageLine0" stroke-width="2" stroke="black" marker-end="url(#arrowhead)" style="fill: none;"></line></g><g><text x="775" y="1027" class="messageText" style="text-anchor: middle;">Challenge</text><line x1="675" y1="1034" x2="875" y2="1034" class="messageLine0" stroke-width="2" stroke="black" marker-end="url(#arrowhead)" style="fill: none;"></line></g><g><text x="1175" y="1062" class="messageText" style="text-anchor: middle;">Challenge</text><line x1="1075" y1="1069" x2="1275" y2="1069" class="messageLine0" stroke-width="2" stroke="black" marker-end="url(#arrowhead)" style="fill: none;"></line></g><g><text x="775" y="1097" class="messageText" style="text-anchor: middle;">Message2</text><line x1="875" y1="1104" x2="675" y2="1104" class="messageLine0" stroke-width="2" stroke="black" marker-end="url(#arrowhead)" style="fill: none;"></line></g><g><text x="1175" y="1132" class="messageText" style="text-anchor: middle;">Message2</text><line x1="1275" y1="1139" x2="1075" y2="1139" class="messageLine0" stroke-width="2" stroke="black" marker-end="url(#arrowhead)" style="fill: none;"></line></g><g><text x="675" y="1167" class="messageText" style="text-anchor: middle;">ProofResult</text><line x1="1075" y1="1174" x2="275" y2="1174" class="messageLine0" stroke-width="2" stroke="black" marker-end="url(#arrowhead)" style="fill: none;"></line></g><g><text x="375" y="1202" class="messageText" style="text-anchor: middle;">ProofResult</text><line x1="675" y1="1209" x2="75" y2="1209" class="messageLine0" stroke-width="2" stroke="black" marker-end="url(#arrowhead)" style="fill: none;"></line></g><g><rect x="0" y="1229" fill="#eaeaea" stroke="#666" width="150" height="65" rx="3" ry="3" class="actor"></rect><text x="75" y="1266.5" class="actor" style="text-anchor: middle;">Alice</text></g><g><rect x="200" y="1229" fill="#eaeaea" stroke="#666" width="150" height="65" rx="3" ry="3" class="actor"></rect><text x="275" y="1266.5" class="actor" style="text-anchor: middle;">Bob</text></g><g><rect x="400" y="1229" fill="#eaeaea" stroke="#666" width="150" height="65" rx="3" ry="3" class="actor"></rect><text x="475" y="1266.5" class="actor" style="text-anchor: middle;">Caroll</text></g><g><rect x="600" y="1229" fill="#eaeaea" stroke="#666" width="150" height="65" rx="3" ry="3" class="actor"></rect><text x="675" y="1266.5" class="actor" style="text-anchor: middle;">Alice/Verifier</text></g><g><rect x="800" y="1229" fill="#eaeaea" stroke="#666" width="150" height="65" rx="3" ry="3" class="actor"></rect><text x="875" y="1266.5" class="actor" style="text-anchor: middle;">Caroll/Prover1</text></g><g><rect x="1000" y="1229" fill="#eaeaea" stroke="#666" width="150" height="65" rx="3" ry="3" class="actor"></rect><text x="1075" y="1266.5" class="actor" style="text-anchor: middle;">Bob/Verifier</text></g><g><rect x="1200" y="1229" fill="#eaeaea" stroke="#666" width="150" height="65" rx="3" ry="3" class="actor"></rect><text x="1275" y="1266.5" class="actor" style="text-anchor: middle;">Caroll/Prover2</text></g></svg>